<svg width="24" height="24" viewBox="0 0 24 24" fill="none" xmlns="http://www.w3.org/2000/svg">
<path d="M12.6192 17.9836H2.34445V2.83879H12.6197C12.8474 2.83879 13.0323 2.64738 13.0323 2.41154V0.83821C13.0323 0.602371 12.8474 0.410965 12.6197 0.410965H0.412609C0.184849 0.410965 0 0.602371 0 0.83821V19.9837C0 20.2196 0.184849 20.411 0.412609 20.411H12.6192C12.8472 20.411 13.0319 20.2196 13.0319 19.9837V18.4108C13.0319 18.1745 12.8474 17.9836 12.6192 17.9836Z" fill="current"/>
<path d="M19.8784 10.109L14.3243 4.35828C14.1696 4.19785 13.8956 4.19806 13.7409 4.35828L12.4232 5.7229C12.2621 5.88974 12.2621 6.16019 12.4232 6.32703L14.9319 8.92511H4.07179C3.84403 8.92511 3.65918 9.11651 3.65918 9.35235V11.4698C3.65918 11.7056 3.84403 11.897 4.07179 11.897H14.9325L12.4238 14.4951C12.2627 14.6619 12.2627 14.9324 12.4238 15.0992L13.7415 16.4641C13.8189 16.5442 13.9241 16.5892 14.0332 16.5892C14.1428 16.5892 14.2476 16.5442 14.3249 16.4641L19.8791 10.7133C19.9564 10.6332 20 10.5243 20 10.4113C19.9997 10.2976 19.9558 10.1891 19.8784 10.109Z" fill="current"/>
</svg>
