<svg width="20" height="20" viewBox="0 0 20 20" fill="none" xmlns="http://www.w3.org/2000/svg">
<path d="M13.9933 3.25334C15.0887 3.31389 16.1157 3.80492 16.8506 4.61942C17.5855 5.43392 17.9687 6.50587 17.9167 7.60167C17.9167 10.1617 15.7067 11.7342 13.5858 13.62C11.4925 15.4892 10.365 16.5108 10 16.7467C9.6025 16.4892 8.21416 15.2275 6.41416 13.62C4.28416 11.7267 2.08333 10.1392 2.08333 7.60167C2.0313 6.50587 2.41449 5.43392 3.14938 4.61942C3.88427 3.80492 4.9113 3.31389 6.00666 3.25334C6.61345 3.23495 7.21463 3.37432 7.75142 3.65784C8.28822 3.94135 8.74226 4.3593 9.06916 4.87084C9.76916 5.85 9.88583 6.34 10.0025 6.34C10.1192 6.34 10.2342 5.85 10.9275 4.86834C11.2525 4.35444 11.7068 3.93483 12.2447 3.65143C12.7827 3.36803 13.3857 3.23076 13.9933 3.25334ZM13.9933 1.58667C13.2366 1.56244 12.4842 1.70924 11.792 2.01613C11.0999 2.32302 10.4859 2.78209 9.99583 3.35917C9.50614 2.78377 8.89342 2.32576 8.20295 2.01896C7.51248 1.71217 6.7619 1.56443 6.00666 1.58667C4.46905 1.6468 3.01781 2.31332 1.97028 3.4405C0.922745 4.56767 0.364158 6.06378 0.416662 7.60167C0.416662 10.61 2.54166 12.4575 4.59583 14.2433C4.83166 14.4483 5.07 14.655 5.30666 14.8658L6.1625 15.6308C7.09586 16.519 8.07438 17.3584 9.09416 18.1458C9.36398 18.3205 9.67856 18.4135 10 18.4135C10.3214 18.4135 10.636 18.3205 10.9058 18.1458C11.9581 17.3344 12.9667 16.4679 13.9275 15.55L14.6958 14.8633C14.94 14.6467 15.1875 14.4308 15.4333 14.2183C17.3783 12.5308 19.5833 10.6183 19.5833 7.60167C19.6358 6.06378 19.0772 4.56767 18.0297 3.4405C16.9822 2.31332 15.5309 1.6468 13.9933 1.58667Z" fill="current"/>
</svg>
