<svg width="20" height="20" viewBox="0 0 20 20" fill="none" xmlns="http://www.w3.org/2000/svg">
<path d="M14.4167 1.29167C12.5417 1.29167 11.125 2.04167 10 3.62501C8.875 2.08334 7.45833 1.33334 5.58333 1.33334C2.5 1.29167 0 4.00001 0 7.33334C0 10.375 2.25 12.3333 4.41667 14.2083C4.66667 14.4167 4.95833 14.6667 5.20833 14.9167L6.16667 15.75C8 17.375 8.91667 18.2083 9.33333 18.4583C9.54167 18.5833 9.79167 18.6667 10 18.6667C10.2083 18.6667 10.4583 18.5833 10.6667 18.4583C11.0833 18.2083 11.8333 17.5417 13.9167 15.625L14.75 14.875C15.0417 14.625 15.2917 14.375 15.5833 14.1667C17.7917 12.3333 20 10.4167 20 7.33334C20 4.00001 17.5 1.29167 14.4167 1.29167Z" fill="#ED4956"/>
</svg>
