<svg width="23" height="23" viewBox="0 0 23 23" fill="none" xmlns="http://www.w3.org/2000/svg">
<path d="M22.9274 10.1754C22.8785 10.0585 22.8086 9.95208 22.7195 9.86295L19.8452 6.9889C19.4705 6.61515 18.8648 6.61515 18.49 6.9889C18.1153 7.36359 18.1153 7.97022 18.49 8.34397L19.7292 9.58309H14.3756C13.8456 9.58309 13.4172 10.0124 13.4172 10.5414C13.4172 11.0704 13.8456 11.4997 14.3756 11.4997H19.7292L18.49 12.7388C18.1153 13.1135 18.1153 13.7202 18.49 14.0939C18.6769 14.2817 18.9222 14.3747 19.1676 14.3747C19.413 14.3747 19.6583 14.2818 19.8452 14.0939L22.7195 11.2199C22.8086 11.1317 22.8785 11.0253 22.9274 10.9074C23.0242 10.6737 23.0242 10.4092 22.9274 10.1754Z" fill="#FEFEFE"/>
<path d="M16.2928 13.4167C15.7628 13.4167 15.3344 13.846 15.3344 14.375V19.1666H11.5008V3.83331C11.5008 3.41069 11.2229 3.03694 10.8175 2.91524L7.48893 1.91668H15.3344V6.70835C15.3344 7.23735 15.7628 7.66667 16.2928 7.66667C16.8228 7.66667 17.2512 7.23735 17.2512 6.70835V0.958361C17.2512 0.429318 16.8228 0 16.2928 0H0.958388C0.923885 0 0.893201 0.014375 0.859687 0.0181933C0.814627 0.023 0.773431 0.0306367 0.730303 0.0411933C0.629671 0.0670682 0.538607 0.106375 0.453339 0.160011C0.43227 0.173443 0.406393 0.174386 0.386266 0.189705C0.378539 0.1955 0.375664 0.206056 0.367982 0.211806C0.263531 0.294193 0.176331 0.394818 0.113077 0.514624C0.0996439 0.540499 0.0967687 0.568306 0.0862562 0.595124C0.0555724 0.667942 0.0220582 0.738874 0.0105574 0.819373C0.00575042 0.848123 0.014376 0.874942 0.0134326 0.902748C0.0124892 0.92193 0 0.93918 0 0.958317V20.125C0 20.5821 0.322967 20.975 0.770556 21.0641L10.3546 22.9808C10.4169 22.9943 10.4801 23 10.5424 23C10.7619 23 10.9775 22.9243 11.15 22.7824C11.3714 22.6004 11.5008 22.3291 11.5008 22.0416V21.0833H16.2928C16.8228 21.0833 17.2512 20.654 17.2512 20.125V14.375C17.2512 13.846 16.8228 13.4167 16.2928 13.4167Z" fill="#FEFEFE"/>
</svg>
