<svg width="87" height="32" viewBox="0 0 87 32" fill="none" xmlns="http://www.w3.org/2000/svg">
<rect y="2" width="28" height="28" rx="4" fill="#222222"/>
<path d="M14.7031 16.5117H10.3203L10.2969 14.0977H13.9766C14.625 14.0977 15.1562 14.0156 15.5703 13.8516C15.9844 13.6797 16.293 13.4336 16.4961 13.1133C16.707 12.7852 16.8125 12.3867 16.8125 11.918C16.8125 11.3867 16.7109 10.957 16.5078 10.6289C16.3125 10.3008 16.0039 10.0625 15.582 9.91406C15.168 9.76562 14.6328 9.69141 13.9766 9.69141H11.5391V24H8.02344V6.9375H13.9766C14.9688 6.9375 15.8555 7.03125 16.6367 7.21875C17.4258 7.40625 18.0938 7.69141 18.6406 8.07422C19.1875 8.45703 19.6055 8.94141 19.8945 9.52734C20.1836 10.1055 20.3281 10.793 20.3281 11.5898C20.3281 12.293 20.168 12.9414 19.8477 13.5352C19.5352 14.1289 19.0391 14.6133 18.3594 14.9883C17.6875 15.3633 16.8086 15.5703 15.7227 15.6094L14.7031 16.5117ZM14.5508 24H9.35938L10.7305 21.2578H14.5508C15.168 21.2578 15.6719 21.1602 16.0625 20.9648C16.4531 20.7617 16.7422 20.4883 16.9297 20.1445C17.1172 19.8008 17.2109 19.4062 17.2109 18.9609C17.2109 18.4609 17.125 18.0273 16.9531 17.6602C16.7891 17.293 16.5234 17.0117 16.1562 16.8164C15.7891 16.6133 15.3047 16.5117 14.7031 16.5117H11.3164L11.3398 14.0977H15.5586L16.3672 15.0469C17.4062 15.0312 18.2422 15.2148 18.875 15.5977C19.5156 15.9727 19.9805 16.4609 20.2695 17.0625C20.5664 17.6641 20.7148 18.3086 20.7148 18.9961C20.7148 20.0898 20.4766 21.0117 20 21.7617C19.5234 22.5039 18.8242 23.0625 17.9023 23.4375C16.9883 23.8125 15.8711 24 14.5508 24Z" fill="#fefefe"/>
<path d="M40.2031 16.5117H35.8203L35.7969 14.0977H39.4766C40.125 14.0977 40.6562 14.0156 41.0703 13.8516C41.4844 13.6797 41.793 13.4336 41.9961 13.1133C42.207 12.7852 42.3125 12.3867 42.3125 11.918C42.3125 11.3867 42.2109 10.957 42.0078 10.6289C41.8125 10.3008 41.5039 10.0625 41.082 9.91406C40.668 9.76562 40.1328 9.69141 39.4766 9.69141H37.0391V24H33.5234V6.9375H39.4766C40.4688 6.9375 41.3555 7.03125 42.1367 7.21875C42.9258 7.40625 43.5938 7.69141 44.1406 8.07422C44.6875 8.45703 45.1055 8.94141 45.3945 9.52734C45.6836 10.1055 45.8281 10.793 45.8281 11.5898C45.8281 12.293 45.668 12.9414 45.3477 13.5352C45.0352 14.1289 44.5391 14.6133 43.8594 14.9883C43.1875 15.3633 42.3086 15.5703 41.2227 15.6094L40.2031 16.5117ZM40.0508 24H34.8594L36.2305 21.2578H40.0508C40.668 21.2578 41.1719 21.1602 41.5625 20.9648C41.9531 20.7617 42.2422 20.4883 42.4297 20.1445C42.6172 19.8008 42.7109 19.4062 42.7109 18.9609C42.7109 18.4609 42.625 18.0273 42.4531 17.6602C42.2891 17.293 42.0234 17.0117 41.6562 16.8164C41.2891 16.6133 40.8047 16.5117 40.2031 16.5117H36.8164L36.8398 14.0977H41.0586L41.8672 15.0469C42.9062 15.0312 43.7422 15.2148 44.375 15.5977C45.0156 15.9727 45.4805 16.4609 45.7695 17.0625C46.0664 17.6641 46.2148 18.3086 46.2148 18.9961C46.2148 20.0898 45.9766 21.0117 45.5 21.7617C45.0234 22.5039 44.3242 23.0625 43.4023 23.4375C42.4883 23.8125 41.3711 24 40.0508 24ZM52.5898 6.9375V24H49.0859V6.9375H52.5898ZM69.7695 6.9375V24H66.2539L59.3984 12.5625V24H55.8828V6.9375H59.3984L66.2656 18.3867V6.9375H69.7695ZM78.0664 24H74.3516L74.375 21.2578H78.0664C78.9883 21.2578 79.7656 21.0508 80.3984 20.6367C81.0312 20.2148 81.5078 19.6016 81.8281 18.7969C82.1562 17.9922 82.3203 17.0195 82.3203 15.8789V15.0469C82.3203 14.1719 82.2266 13.4023 82.0391 12.7383C81.8594 12.0742 81.5898 11.5156 81.2305 11.0625C80.8711 10.6094 80.4297 10.2695 79.9062 10.043C79.3828 9.80859 78.7812 9.69141 78.1016 9.69141H74.2812V6.9375H78.1016C79.2422 6.9375 80.2852 7.13281 81.2305 7.52344C82.1836 7.90625 83.0078 8.45703 83.7031 9.17578C84.3984 9.89453 84.9336 10.7539 85.3086 11.7539C85.6914 12.7461 85.8828 13.8516 85.8828 15.0703V15.8789C85.8828 17.0898 85.6914 18.1953 85.3086 19.1953C84.9336 20.1953 84.3984 21.0547 83.7031 21.7734C83.0156 22.4844 82.1914 23.0352 81.2305 23.4258C80.2773 23.8086 79.2227 24 78.0664 24ZM76.3438 6.9375V24H72.8281V6.9375H76.3438Z" fill="#222222"/>
</svg>
