<svg width="133" height="48" viewBox="0 0 133 48" fill="none" xmlns="http://www.w3.org/2000/svg">
<g filter="url(#filter0_d_52_2169)">
<rect x="2" y="2" width="40" height="40" rx="4" fill="#222222"/>
<path d="M23.3047 22.7676H16.7305L16.6953 19.1465H22.2148C23.1875 19.1465 23.9844 19.0234 24.6055 18.7773C25.2266 18.5195 25.6895 18.1504 25.9941 17.6699C26.3105 17.1777 26.4688 16.5801 26.4688 15.877C26.4688 15.0801 26.3164 14.4355 26.0117 13.9434C25.7188 13.4512 25.2559 13.0938 24.623 12.8711C24.002 12.6484 23.1992 12.5371 22.2148 12.5371H18.5586V34H13.2852V8.40625H22.2148C23.7031 8.40625 25.0332 8.54688 26.2051 8.82812C27.3887 9.10938 28.3906 9.53711 29.2109 10.1113C30.0312 10.6855 30.6582 11.4121 31.0918 12.291C31.5254 13.1582 31.7422 14.1895 31.7422 15.3848C31.7422 16.4395 31.502 17.4121 31.0215 18.3027C30.5527 19.1934 29.8086 19.9199 28.7891 20.4824C27.7812 21.0449 26.4629 21.3555 24.834 21.4141L23.3047 22.7676ZM23.0762 34H15.2891L17.3457 29.8867H23.0762C24.002 29.8867 24.7578 29.7402 25.3438 29.4473C25.9297 29.1426 26.3633 28.7324 26.6445 28.2168C26.9258 27.7012 27.0664 27.1094 27.0664 26.4414C27.0664 25.6914 26.9375 25.041 26.6797 24.4902C26.4336 23.9395 26.0352 23.5176 25.4844 23.2246C24.9336 22.9199 24.207 22.7676 23.3047 22.7676H18.2246L18.2598 19.1465H24.5879L25.8008 20.5703C27.3594 20.5469 28.6133 20.8223 29.5625 21.3965C30.5234 21.959 31.2207 22.6914 31.6543 23.5938C32.0996 24.4961 32.3223 25.4629 32.3223 26.4941C32.3223 28.1348 31.9648 29.5176 31.25 30.6426C30.5352 31.7559 29.4863 32.5938 28.1035 33.1562C26.7324 33.7188 25.0566 34 23.0762 34Z" fill="#FEFEFE"/>
<path d="M58.3047 22.7676H51.7305L51.6953 19.1465H57.2148C58.1875 19.1465 58.9844 19.0234 59.6055 18.7773C60.2266 18.5195 60.6895 18.1504 60.9941 17.6699C61.3105 17.1777 61.4688 16.5801 61.4688 15.877C61.4688 15.0801 61.3164 14.4355 61.0117 13.9434C60.7188 13.4512 60.2559 13.0938 59.623 12.8711C59.002 12.6484 58.1992 12.5371 57.2148 12.5371H53.5586V34H48.2852V8.40625H57.2148C58.7031 8.40625 60.0332 8.54688 61.2051 8.82812C62.3887 9.10938 63.3906 9.53711 64.2109 10.1113C65.0312 10.6855 65.6582 11.4121 66.0918 12.291C66.5254 13.1582 66.7422 14.1895 66.7422 15.3848C66.7422 16.4395 66.502 17.4121 66.0215 18.3027C65.5527 19.1934 64.8086 19.9199 63.7891 20.4824C62.7812 21.0449 61.4629 21.3555 59.834 21.4141L58.3047 22.7676ZM58.0762 34H50.2891L52.3457 29.8867H58.0762C59.002 29.8867 59.7578 29.7402 60.3438 29.4473C60.9297 29.1426 61.3633 28.7324 61.6445 28.2168C61.9258 27.7012 62.0664 27.1094 62.0664 26.4414C62.0664 25.6914 61.9375 25.041 61.6797 24.4902C61.4336 23.9395 61.0352 23.5176 60.4844 23.2246C59.9336 22.9199 59.207 22.7676 58.3047 22.7676H53.2246L53.2598 19.1465H59.5879L60.8008 20.5703C62.3594 20.5469 63.6133 20.8223 64.5625 21.3965C65.5234 21.959 66.2207 22.6914 66.6543 23.5938C67.0996 24.4961 67.3223 25.4629 67.3223 26.4941C67.3223 28.1348 66.9648 29.5176 66.25 30.6426C65.5352 31.7559 64.4863 32.5938 63.1035 33.1562C61.7324 33.7188 60.0566 34 58.0762 34ZM76.8848 8.40625V34H71.6289V8.40625H76.8848ZM102.654 8.40625V34H97.3809L87.0977 16.8438V34H81.8242V8.40625H87.0977L97.3984 25.5801V8.40625H102.654ZM115.1 34H109.527L109.562 29.8867H115.1C116.482 29.8867 117.648 29.5762 118.598 28.9551C119.547 28.3223 120.262 27.4023 120.742 26.1953C121.234 24.9883 121.48 23.5293 121.48 21.8184V20.5703C121.48 19.2578 121.34 18.1035 121.059 17.1074C120.789 16.1113 120.385 15.2734 119.846 14.5938C119.307 13.9141 118.645 13.4043 117.859 13.0645C117.074 12.7129 116.172 12.5371 115.152 12.5371H109.422V8.40625H115.152C116.863 8.40625 118.428 8.69922 119.846 9.28516C121.275 9.85938 122.512 10.6855 123.555 11.7637C124.598 12.8418 125.4 14.1309 125.963 15.6309C126.537 17.1191 126.824 18.7773 126.824 20.6055V21.8184C126.824 23.6348 126.537 25.293 125.963 26.793C125.4 28.293 124.598 29.582 123.555 30.6602C122.523 31.7266 121.287 32.5527 119.846 33.1387C118.416 33.7129 116.834 34 115.1 34ZM112.516 8.40625V34H107.242V8.40625H112.516Z" fill="#222222"/>
</g>
<defs>
<filter id="filter0_d_52_2169" x="0" y="0" width="135" height="48" filterUnits="userSpaceOnUse" color-interpolation-filters="sRGB">
<feFlood flood-opacity="0" result="BackgroundImageFix"/>
<feColorMatrix in="SourceAlpha" type="matrix" values="0 0 0 0 0 0 0 0 0 0 0 0 0 0 0 0 0 0 127 0" result="hardAlpha"/>
<feOffset dx="2" dy="2"/>
<feGaussianBlur stdDeviation="2"/>
<feComposite in2="hardAlpha" operator="out"/>
<feColorMatrix type="matrix" values="0 0 0 0 0 0 0 0 0 0 0 0 0 0 0 0 0 0 0.4 0"/>
<feBlend mode="normal" in2="BackgroundImageFix" result="effect1_dropShadow_52_2169"/>
<feBlend mode="normal" in="SourceGraphic" in2="effect1_dropShadow_52_2169" result="shape"/>
</filter>
</defs>
</svg>
