<svg width="24" height="24" viewBox="0 0 24 24" fill="none" xmlns="http://www.w3.org/2000/svg">
<path d="M14.4 12C14.4 12.6365 14.1472 13.247 13.6971 13.697C13.247 14.1471 12.6365 14.4 12 14.4C11.3635 14.4 10.7531 14.1471 10.303 13.697C9.85288 13.247 9.60002 12.6365 9.60002 12C9.60002 11.3635 9.85288 10.753 10.303 10.3029C10.7531 9.85285 11.3635 9.59999 12 9.59999C12.6365 9.59999 13.247 9.85285 13.6971 10.3029C14.1472 10.753 14.4 11.3635 14.4 12ZM7.20002 12C7.20002 12.6365 6.94717 13.247 6.49708 13.697C6.04699 14.1471 5.43654 14.4 4.80002 14.4C4.1635 14.4 3.55306 14.1471 3.10297 13.697C2.65288 13.247 2.40002 12.6365 2.40002 12C2.40002 11.3635 2.65288 10.753 3.10297 10.3029C3.55306 9.85285 4.1635 9.59999 4.80002 9.59999C5.43654 9.59999 6.04699 9.85285 6.49708 10.3029C6.94717 10.753 7.20002 11.3635 7.20002 12ZM21.6 12C21.6 12.6365 21.3472 13.247 20.8971 13.697C20.447 14.1471 19.8365 14.4 19.2 14.4C18.5635 14.4 17.9531 14.1471 17.503 13.697C17.0529 13.247 16.8 12.6365 16.8 12C16.8 11.3635 17.0529 10.753 17.503 10.3029C17.9531 9.85285 18.5635 9.59999 19.2 9.59999C19.8365 9.59999 20.447 9.85285 20.8971 10.3029C21.3472 10.753 21.6 11.3635 21.6 12Z" fill="current"/>
</svg>
