<svg width="16" height="16" viewBox="0 0 16 16" fill="none" xmlns="http://www.w3.org/2000/svg">
<g clip-path="url(#clip0_13_147)">
<rect width="16" height="16" fill="#FEFEFE"/>
<path d="M6.55295 13.1123C7.90209 13.1123 9.14844 12.7012 10.1892 12.0073L13.9539 15.7721C14.2496 16.0676 14.7378 16.0676 15.0461 15.7721L15.7785 15.0397C16.074 14.7441 16.074 14.2559 15.7785 13.9475L12.0009 10.1956C12.6946 9.15486 13.1059 7.90852 13.1059 6.55938C13.1059 2.94883 10.1635 0.00642446 6.55295 0.00642446C2.9424 0.00642446 0 2.94883 0 6.55938C0 10.1698 2.92956 13.1123 6.55295 13.1123ZM6.55295 2.57621C8.75012 2.57621 10.5361 4.36221 10.5361 6.55938C10.5361 8.75654 8.75012 10.5425 6.55295 10.5425C4.35579 10.5425 2.56979 8.75654 2.56979 6.55938C2.56979 4.36221 4.35579 2.57621 6.55295 2.57621Z" fill="#222222"/>
</g>
<defs>
<clipPath id="clip0_13_147">
<rect width="16" height="16" fill="white"/>
</clipPath>
</defs>
</svg>
