<svg width="32" height="32" viewBox="0 0 32 32" fill="none" xmlns="http://www.w3.org/2000/svg">
<path fill-rule="evenodd" clip-rule="evenodd" d="M2.01733 2.61333C2.28646 2.37608 2.61933 2.22307 2.97463 2.1733C3.32993 2.12352 3.69203 2.17917 4.016 2.33333L29.796 14.62C30.0569 14.744 30.2774 14.9395 30.4317 15.1838C30.586 15.4281 30.668 15.7111 30.668 16C30.668 16.2889 30.586 16.5719 30.4317 16.8162C30.2774 17.0605 30.0569 17.2559 29.796 17.38L4.016 29.6667C3.71426 29.8103 3.37897 29.8687 3.04643 29.8355C2.71389 29.8023 2.39678 29.6787 2.12941 29.4782C1.86204 29.2778 1.6546 29.0079 1.52956 28.698C1.40451 28.3881 1.36663 28.0499 1.42 27.72L3.32 16L1.42 4.28C1.37062 3.97435 1.3995 3.66117 1.50396 3.36971C1.60842 3.07826 1.78504 2.81803 2.01733 2.61333ZM5.184 17L3.44533 27.7227L28.0413 16L3.44533 4.27733L5.184 15H15C15.2652 15 15.5196 15.1054 15.7071 15.2929C15.8946 15.4804 16 15.7348 16 16C16 16.2652 15.8946 16.5196 15.7071 16.7071C15.5196 16.8946 15.2652 17 15 17H5.184Z" fill="current"/>
</svg>
