<svg width="24" height="24" viewBox="0 0 24 24" fill="none" xmlns="http://www.w3.org/2000/svg">
<g clip-path="url(#clip0_104_1142)">
<path d="M11.9993 20.4C12.3176 20.4 12.6229 20.5264 12.8479 20.7515C13.073 20.9765 13.1994 21.2817 13.1994 21.6V22.8C13.1994 23.1183 13.073 23.4235 12.8479 23.6485C12.6229 23.8736 12.3176 24 11.9993 24C11.6811 24 11.3758 23.8736 11.1508 23.6485C10.9257 23.4235 10.7993 23.1183 10.7993 22.8V21.6C10.7993 21.2817 10.9257 20.9765 11.1508 20.7515C11.3758 20.5264 11.6811 20.4 11.9993 20.4V20.4ZM19.6366 17.94L20.485 18.7884C20.7036 19.0147 20.8246 19.3178 20.8218 19.6325C20.8191 19.9471 20.6929 20.2481 20.4704 20.4706C20.2479 20.6931 19.9469 20.8193 19.6322 20.822C19.3176 20.8247 19.0144 20.7038 18.7881 20.4852L17.9397 19.6368C17.7211 19.4105 17.6001 19.1074 17.6028 18.7927C17.6056 18.4781 17.7318 18.1771 17.9543 17.9546C18.1768 17.7321 18.4778 17.6059 18.7924 17.6032C19.1071 17.6005 19.4102 17.7214 19.6366 17.94ZM4.36211 17.94C4.57807 17.7248 4.86786 17.5998 5.17262 17.5905C5.47737 17.5812 5.77425 17.6883 6.00294 17.8899C6.23163 18.0915 6.37499 18.3727 6.4039 18.6762C6.43282 18.9797 6.34512 19.2828 6.15861 19.524L6.05901 19.6368L5.21056 20.4852C4.9946 20.7004 4.70481 20.8254 4.40005 20.8347C4.0953 20.844 3.79842 20.7369 3.56973 20.5353C3.34104 20.3337 3.19768 20.0525 3.16877 19.749C3.13985 19.4455 3.22756 19.1424 3.41406 18.9012L3.51366 18.7884L4.36211 17.94ZM11.9993 4.8C13.909 4.8 15.7404 5.55857 17.0908 6.90883C18.4411 8.25909 19.1997 10.0904 19.1997 12C19.1997 13.9096 18.4411 15.7409 17.0908 17.0912C15.7404 18.4414 13.909 19.2 11.9993 19.2C10.0897 19.2 8.25822 18.4414 6.90788 17.0912C5.55755 15.7409 4.79894 13.9096 4.79894 12C4.79894 10.0904 5.55755 8.25909 6.90788 6.90883C8.25822 5.55857 10.0897 4.8 11.9993 4.8V4.8ZM2.3988 10.8C2.70468 10.8003 2.99888 10.9175 3.22129 11.1274C3.44371 11.3374 3.57755 11.6243 3.59548 11.9297C3.6134 12.235 3.51406 12.5357 3.31774 12.7702C3.12142 13.0047 2.84294 13.1555 2.53921 13.1916L2.3988 13.2H1.19874C0.892864 13.1997 0.598665 13.0825 0.376249 12.8726C0.153834 12.6626 0.0199897 12.3757 0.00206416 12.0703C-0.0158614 11.765 0.0834847 11.4643 0.279804 11.2298C0.476123 10.9953 0.754597 10.8445 1.05833 10.8084L1.19874 10.8H2.3988ZM22.7999 10.8C23.1182 10.8 23.4235 10.9264 23.6485 11.1515C23.8736 11.3765 24 11.6817 24 12C24 12.3183 23.8736 12.6235 23.6485 12.8485C23.4235 13.0736 23.1182 13.2 22.7999 13.2H21.5999C21.2816 13.2 20.9763 13.0736 20.7513 12.8485C20.5262 12.6235 20.3998 12.3183 20.3998 12C20.3998 11.6817 20.5262 11.3765 20.7513 11.1515C20.9763 10.9264 21.2816 10.8 21.5999 10.8H22.7999ZM3.51366 3.5148C3.72031 3.30819 3.99524 3.18407 4.28689 3.16573C4.57854 3.1474 4.86686 3.2361 5.09775 3.4152L5.21056 3.5148L6.05901 4.3632C6.27424 4.57915 6.39919 4.86892 6.4085 5.17366C6.41781 5.4784 6.31076 5.77526 6.10911 6.00393C5.90746 6.23261 5.62632 6.37597 5.3228 6.40488C5.01927 6.43379 4.71612 6.34609 4.47492 6.1596L4.36211 6.06L3.51366 5.2116C3.28869 4.98657 3.1623 4.6814 3.1623 4.3632C3.1623 4.045 3.28869 3.73983 3.51366 3.5148V3.5148ZM20.485 3.5148C20.71 3.73983 20.8364 4.045 20.8364 4.3632C20.8364 4.6814 20.71 4.98657 20.485 5.2116L19.6366 6.06C19.5259 6.17461 19.3934 6.26603 19.247 6.32892C19.1006 6.39181 18.9431 6.42492 18.7838 6.4263C18.6244 6.42769 18.4664 6.39732 18.3189 6.33699C18.1715 6.27665 18.0375 6.18755 17.9248 6.07487C17.8121 5.9622 17.723 5.82822 17.6627 5.68074C17.6023 5.53327 17.572 5.37525 17.5733 5.21592C17.5747 5.05658 17.6078 4.89912 17.6707 4.75271C17.7336 4.60631 17.825 4.4739 17.9397 4.3632L18.7881 3.5148C19.0132 3.28983 19.3183 3.16346 19.6366 3.16346C19.9548 3.16346 20.26 3.28983 20.485 3.5148V3.5148ZM11.9993 0C12.3176 0 12.6229 0.126428 12.8479 0.351472C13.073 0.576515 13.1994 0.88174 13.1994 1.2V2.4C13.1994 2.71826 13.073 3.02348 12.8479 3.24853C12.6229 3.47357 12.3176 3.6 11.9993 3.6C11.6811 3.6 11.3758 3.47357 11.1508 3.24853C10.9257 3.02348 10.7993 2.71826 10.7993 2.4V1.2C10.7993 0.88174 10.9257 0.576515 11.1508 0.351472C11.3758 0.126428 11.6811 0 11.9993 0V0Z" fill="#FEFEFE"/>
</g>
<defs>
<clipPath id="clip0_104_1142">
<rect width="24" height="24" fill="#fefefe"/>
</clipPath>
</defs>
</svg>
