<svg width="24" height="24" viewBox="0 0 24 24" fill="none" xmlns="http://www.w3.org/2000/svg">
<g clip-path="url(#clip0_95_987)">
<path d="M22.3364 0.777937C21.2991 -0.259312 19.6225 -0.259312 18.5852 0.777937L17.1596 2.19883L21.7964 6.83566L23.2221 5.41004C24.2593 4.37279 24.2593 2.69614 23.2221 1.65889L22.3364 0.777937ZM8.16538 11.1978C7.87646 11.4867 7.65386 11.8419 7.52598 12.235L6.12403 16.4409C5.98668 16.8482 6.09561 17.2981 6.39874 17.606C6.70186 17.9139 7.15181 18.0181 7.56387 17.8807L11.7697 16.4788C12.1581 16.3461 12.5133 16.1283 12.8069 15.8394L20.7308 7.9108L16.0892 3.26923L8.16538 11.1978ZM4.54685 2.78139C2.03661 2.78139 0 4.818 0 7.32824V19.4532C0 21.9634 2.03661 24 4.54685 24H16.6718C19.182 24 21.2186 21.9634 21.2186 19.4532V14.9063C21.2186 14.068 20.5413 13.3907 19.703 13.3907C18.8647 13.3907 18.1874 14.068 18.1874 14.9063V19.4532C18.1874 20.2915 17.5101 20.9688 16.6718 20.9688H4.54685C3.70852 20.9688 3.03123 20.2915 3.03123 19.4532V7.32824C3.03123 6.48991 3.70852 5.81262 4.54685 5.81262H9.09369C9.93202 5.81262 10.6093 5.13533 10.6093 4.29701C10.6093 3.45868 9.93202 2.78139 9.09369 2.78139H4.54685Z" fill="#FEFEFE"/>
</g>
<defs>
<clipPath id="clip0_95_987">
<rect width="24" height="24" fill="white"/>
</clipPath>
</defs>
</svg>
